<?xml version="1.0" standalone="no"?><!DOCTYPE svg PUBLIC "-//W3C//DTD SVG 1.1//EN" "http://www.w3.org/Graphics/SVG/1.1/DTD/svg11.dtd"><svg t="1648284260108" class="icon" viewBox="0 0 1024 1024" version="1.1" xmlns="http://www.w3.org/2000/svg" p-id="12054" xmlns:xlink="http://www.w3.org/1999/xlink" width="200" height="200"><defs><style type="text/css"></style></defs><path d="M224 672v-64h96v64H224zM224 224h288v64H224V224z m288 256H224v-64h288v64zM864 160a32 32 0 0 0-32-32H160a32 32 0 0 0-32 32v704a32 32 0 0 0 32 32h352v64H160a96 96 0 0 1-96-96V160a96 96 0 0 1 96-96h672a96 96 0 0 1 96 96v320h-64V160z m-128 352a224 224 0 1 1-224 224 224 224 0 0 1 224-224z m0 64a158.24 158.24 0 0 0-77.76 20.992l216.8 216.8A158.272 158.272 0 0 0 896 736a160 160 0 0 0-160-160z m0 320a158.528 158.528 0 0 0 97.12-33.632l-223.456-223.456A159.232 159.232 0 0 0 736 896z" p-id="12055"></path></svg>