<?xml version="1.0" standalone="no"?><!DOCTYPE svg PUBLIC "-//W3C//DTD SVG 1.1//EN" "http://www.w3.org/Graphics/SVG/1.1/DTD/svg11.dtd"><svg t="1648605679711" class="icon" viewBox="0 0 1024 1024" version="1.1" xmlns="http://www.w3.org/2000/svg" p-id="1803" xmlns:xlink="http://www.w3.org/1999/xlink" width="200" height="200"><defs><style type="text/css"></style></defs><path d="M736 896a32 32 0 0 1-32-32 309.333333 309.333333 0 0 0-618.666667 0 32 32 0 0 1-64 0 373.333333 373.333333 0 0 1 746.666667 0 32 32 0 0 1-32 32z m-341.333333-341.333333a213.333333 213.333333 0 1 1 213.333333-213.333334 213.333333 213.333333 0 0 1-213.333333 213.333334z m0-362.666667a149.333333 149.333333 0 1 0 149.333333 149.333333 149.333333 149.333333 0 0 0-149.333333-149.333333z" fill="#5B8DF0" p-id="1804"></path><path d="M1002.666667 864a32 32 0 0 1-64 0A309.333333 309.333333 0 0 0 629.333333 554.666667a32 32 0 0 1 0-64 149.333333 149.333333 0 0 0 0-298.666667 32 32 0 0 1 0-64 213.141333 213.141333 0 0 1 126.250667 385.024A373.12 373.12 0 0 1 1002.666667 864z" fill="#F2A355" p-id="1805"></path></svg>